HIERARCHY
ROOT Hips
{
  OFFSET 3.13124 94.3669 -3.18751
  CHANNELS  6 Xposition Yposition Zposition Zrotation Xrotation Yrotation
  JOINT LeftUpLeg
  {
    OFFSET 8.64259 1.95398 -2.38835
    CHANNELS 3 Zrotation Xrotation Yrotation
    JOINT LeftLeg
    {
      OFFSET 43.7702 0 0
      CHANNELS 3 Zrotation Xrotation Yrotation
      JOINT LeftFoot
      {
        OFFSET 40.6238 0 0
        CHANNELS 3 Zrotation Xrotation Yrotation
        JOINT LeftToeBase
        {
          OFFSET 12.7242 0 0
          CHANNELS 3 Zrotation Xrotation Yrotation
          End Site
          {
            OFFSET 0 0 0
          }
        }
      }
    }
  }
  JOINT RightUpLeg
  {
    OFFSET -8.2249 1.95398 -2.59336
    CHANNELS 3 Zrotation Xrotation Yrotation
    JOINT RightLeg
    {
      OFFSET 43.5653 0 0
      CHANNELS 3 Zrotation Xrotation Yrotation
      JOINT RightFoot
      {
        OFFSET 40.6238 0 0
        CHANNELS 3 Zrotation Xrotation Yrotation
        JOINT RightToeBase
        {
          OFFSET 12.7242 0 0
          CHANNELS 3 Zrotation Xrotation Yrotation
          End Site
          {
            OFFSET 0 0 0
          }
        }
      }
    }
  }
  JOINT Spine
  {
    OFFSET 0.165834 0.87714 6.61349
    CHANNELS 3 Zrotation Xrotation Yrotation
    JOINT Spine1
    {
      OFFSET 7.38962 1.71661e-005 0
      CHANNELS 3 Zrotation Xrotation Yrotation
      JOINT Spine2
      {
        OFFSET 11.9445 1.14441e-005 0
        CHANNELS 3 Zrotation Xrotation Yrotation
        JOINT Spine3
        {
          OFFSET 14.7254 4.19617e-005 0
          CHANNELS 3 Zrotation Xrotation Yrotation
          JOINT Spine4
          {
            OFFSET 10.9679 0 0
            CHANNELS 3 Zrotation Xrotation Yrotation
            JOINT RightShoulder
            {
              OFFSET 2.46616 -1.6653 3.69651
              CHANNELS 3 Zrotation Xrotation Yrotation
              JOINT RightArm
              {
                OFFSET 13.0012 0 0
                CHANNELS 3 Zrotation Xrotation Yrotation
                JOINT RightForeArm
                {
                  OFFSET 28.7848 1.52588e-005 0
                  CHANNELS 3 Zrotation Xrotation Yrotation
                  JOINT RightHand
                  {
                    OFFSET 26.5688 1.52588e-005 0
                    CHANNELS 3 Zrotation Xrotation Yrotation
                    End Site
                    {
                      OFFSET 0 0 0
                    }
                  }
                }
              }
            }
            JOINT LeftShoulder
            {
              OFFSET 2.38034 -1.29275 -3.75231
              CHANNELS 3 Zrotation Xrotation Yrotation
              JOINT LeftArm
              {
                OFFSET 16.3182 6.10352e-005 0
                CHANNELS 3 Zrotation Xrotation Yrotation
                JOINT LeftForeArm
                {
                  OFFSET 27.0901 0 0
                  CHANNELS 3 Zrotation Xrotation Yrotation
                  JOINT LeftHand
                  {
                    OFFSET 24.5451 1.52588e-005 0
                    CHANNELS 3 Zrotation Xrotation Yrotation
                    End Site
                    {
                      OFFSET 0 0 0
                    }
                  }
                }
              }
            }
            JOINT Neck
            {
              OFFSET 5.0226 -0.0266342 0
              CHANNELS 3 Zrotation Xrotation Yrotation
              JOINT Head
              {
                OFFSET 6.69363 2.86102e-005 0
                CHANNELS 3 Zrotation Xrotation Yrotation
                End Site
                {
                  OFFSET 0 0 0
                }
              }
            }
          }
        }
      }
    }
  }
}
MOTION
Frames:	16
Frame Time:	0.0333333
1.35843 90.7973 -129.674 -102.604 -70.187 -94.9268 -167.812 14.3601 100.982 -47.2039 6.52166 2.73618 78.4205 15.1569 6.51945 28.7808 6.08519e-006 4.16276e-006 179.911 17.447 85.8328 -33.8376 19.5105 0.945955 57.8516 2.67608 1.9231 28.7808 1.37887e-005 2.62426e-005 -1.58245 5.05251 -88.9088 16.6899 -3.3801 -0.161256 5.02335 -3.38392 -0.012169 -17.5439 -3.1752 -1.17068 2.46875 -3.17521 -1.17069 103.079 -8.98071 -79.3953 71.9798 50.2902 -112.453 9.22503 -8.78155 -77.5839 -5.37983 -0.320016 -0.0162406 -84.1087 43.1934 144.222 -59.4361 -21.2589 -102.103 64.754 11.2252 -77.7023 28.4454 -5.19296 -22.7679 1.503 -13.9131 -14.9941 -16.5387 -10.8123 -5.99489 
0.398665 90.2398 -129.933 -103.183 -76.0929 -94.6374 -168.266 18.0209 101.682 -50.0992 10.2742 5.76031 78.8925 15.2077 6.46835 28.7808 6.08519e-006 4.16276e-006 179.632 17.5006 83.7483 -31.6251 21.0222 1.0567 54.668 5.16824 3.81546 28.7808 1.37887e-005 2.62426e-005 -1.47585 5.06847 -88.6794 16.6653 -3.00627 0.124274 4.99776 -2.99789 0.256577 -17.564 -2.90452 -0.785761 2.44863 -2.90452 -0.785762 102.176 -9.53784 -82.1762 76.6362 48.7395 -114.895 11.0327 -10.1881 -80.2604 -5.37983 -0.320016 -0.0162406 -82.3878 39.9835 145.163 -57.8493 -21.3001 -101.312 71.4598 10.7611 -79.9739 33.8391 -3.81318 -15.7039 2.68943 -14.6024 -13.0271 -18.2657 -11.3291 -7.73464 
-0.829144 89.5381 -130.245 -105.643 -82.4153 -96.2333 -168.956 21.9513 102.259 -53.585 14.4648 9.31182 79.3098 14.7097 6.19207 28.7808 6.08519e-006 4.16276e-006 179.367 16.9895 81.9504 -29.9957 25.2992 1.34696 51.6894 7.18296 5.554 28.7808 1.37887e-005 2.62426e-005 -1.30964 5.16789 -88.2969 16.4717 -2.45689 0.508149 4.80291 -2.43214 0.615835 -17.7508 -2.49596 -0.254209 2.2618 -2.49595 -0.254207 101.629 -9.74287 -83.8369 80.0664 45.9179 -116.365 12.8062 -11.5463 -82.8003 -5.37983 -0.320016 -0.0162406 -80.0811 35.9577 144.04 -55.4924 -22.8335 -101.277 72.3882 9.46639 -80.5456 30.73 -3.79718 -16.7832 3.41096 -15.6053 -11.6366 -19.1638 -12.2209 -9.1016 
-2.37561 88.7277 -130.684 -106.8 -89.1842 -96.3873 -170.126 26.8284 102.759 -57.4545 18.604 13.1841 79.4767 13.8696 5.81092 28.7808 6.08519e-006 4.16276e-006 179.158 17.0179 80.2057 -29.7847 27.9679 1.53021 48.7839 7.93082 6.49802 28.7808 1.37887e-005 2.62426e-005 -1.08615 5.32821 -87.9441 16.1636 -1.73355 0.867186 4.49342 -1.69369 0.942641 -18.0505 -1.91401 0.305933 1.96208 -1.914 0.305921 101.02 -10.055 -85.6236 84.1509 43.9465 -118.905 14.4977 -12.1114 -84.333 -5.37983 -0.320016 -0.0162406 -76.2887 28.3302 141.307 -51.4447 -26.4536 -103.698 66.1627 8.07872 -80.7231 27.4507 -2.71767 -14.2271 6.19885 -16.5735 -9.64392 -21.9549 -12.8382 -10.2962 
-4.16019 87.7687 -131.219 74.8901 -84.7489 85.9702 -171.432 31.6185 102.966 -61.6449 22.0007 16.7135 78.9751 12.6512 5.34287 28.7808 6.08519e-006 4.16276e-006 179.191 17.4917 78.521 -30.9836 31.891 1.8121 45.9572 9.16814 7.89413 28.7808 1.37887e-005 2.62426e-005 -0.800404 5.63907 -87.3887 15.5532 -0.777255 1.36772 3.88178 -0.716314 1.40059 -18.6513 -1.15236 1.07093 1.36134 -1.15237 1.07094 99.1797 -13.4882 -90.4927 88.38 43.4763 -124.165 15.6852 -13.4563 -85.6193 -5.37983 -0.320016 -0.0162406 -73.2804 20.4724 137.53 -47.4883 -32.3981 -105.614 67.6877 7.78506 -80.4265 25.9265 -3.45801 -17.6719 7.86553 -17.9718 -9.73795 -21.9274 -14.1574 -9.68955 
-6.09662 86.623 -131.927 74.5707 -79.2281 86.022 -173.009 36.1433 102.922 -65.2332 23.9413 19.5343 78.7496 11.6956 4.95533 28.7808 6.08519e-006 4.16276e-006 179.147 17.5557 76.6787 -31.8133 35.6849 2.11472 44.0508 11.1708 9.86737 28.7808 1.37887e-005 2.62426e-005 -0.400548 6.03639 -86.9342 14.7811 0.415419 1.74433 3.10912 0.491781 1.72436 -19.4166 -0.127939 1.78853 0.59601 -0.127929 1.78853 98.4024 -13.7446 -92.5651 93.1272 38.8555 -126.057 18.5643 -15.5876 -87.8716 -5.37983 -0.320016 -0.0162406 -70.8034 8.75097 129.532 -40.1022 -42.7493 -103.811 69.0887 6.2105 -80.7392 23.6785 -3.90537 -20.7639 10.235 -18.7642 -6.64519 -22.6084 -15.0523 -11.3713 
-8.15843 85.2314 -132.76 73.5443 -74.1003 85.2575 -174.868 40.1333 102.965 -67.709 25.8852 21.9505 79.8172 10.5683 4.37543 28.7808 6.08519e-006 4.16276e-006 178.964 17.6045 74.6397 -32.3218 38.8537 2.40937 42.5331 12.7352 11.4991 28.7808 1.37887e-005 2.62426e-005 0.0347263 6.55085 -86.7322 13.7897 1.62914 2.07855 2.11826 1.71903 2.00486 -20.4068 0.929357 2.47187 -0.394193 0.929361 2.47187 97.5387 -14.0657 -94.8493 95.8158 36.4729 -126.071 21.0038 -17.4263 -92.1685 -5.37983 -0.320016 -0.0162406 -70.3092 -4.82449 120.193 -31.5682 -52.8359 -99.7228 73.6129 4.54278 -80.2411 19.7295 -6.0655 -34.2655 12.4857 -19.2885 -2.11088 -22.3208 -16.0919 -13.8435 
-10.5647 84.3161 -133.778 71.0437 -69.6684 81.2505 -177.472 47.3869 99.4776 -79.5072 31.6124 31.2884 70.2691 4.40763 2.00115 28.7808 6.08519e-006 4.16276e-006 179.033 18.4845 70.7859 -31.8563 40.8816 2.49697 40.6908 12.8925 12.0847 28.7808 1.37887e-005 2.62426e-005 -0.0733982 7.03638 -85.3298 12.8423 2.91473 2.30692 1.1728 3.01342 2.17638 -21.3612 2.087 3.07596 -1.34851 2.08701 3.07597 96.6886 -13.0023 -97.5068 101.679 27.4522 -124.383 26.0411 -22.8303 -92.9069 -5.37983 -0.320016 -0.0162406 -72.2485 -17.7297 110.258 -17.4914 -60.6999 -87.5194 73.9246 2.36395 -80.4135 19.9774 -7.07119 -38.7292 17.3175 -18.3128 6.92102 -28.0729 -15.2418 -21.0455 
-12.7424 82.8168 -134.627 69.7514 -66.7462 78.804 -178.632 50.8957 98.906 -81.5953 33.3028 32.3706 70.0296 3.48124 1.51433 28.7808 6.08519e-006 4.16276e-006 179.142 20.2802 67.1475 -32.8388 41.09 2.52587 40.0665 12.8705 12.2126 28.7808 1.37887e-005 2.62426e-005 0.305923 7.67251 -85.1477 11.6205 4.2344 2.64717 -0.0458885 4.34673 2.45807 -22.5952 3.24357 3.79731 -2.58254 3.24355 3.79731 96.1097 -12.6135 -99.2544 101.485 25.584 -119.438 27.1041 -23.61 -95.6399 -5.37983 -0.320016 -0.0162406 -75.3145 -26.5928 102.137 -0.440385 -63.933 -68.3048 69.8341 0.784856 -81.8297 25.4253 -6.3487 -29.3066 19.0973 -18.8952 11.3794 -27.8192 -16.956 -22.451 
-15.1999 81.3358 -135.101 73.3458 -67.1246 81.2564 -177.98 51.7899 100.038 -83.6967 34.807 32.7383 70.3978 2.01524 0.72754 28.7808 6.08519e-006 4.16276e-006 179.64 21.1446 64.6488 -34.4775 39.7232 2.31389 40.2106 14.1823 13.372 28.7808 1.37887e-005 2.62426e-005 0.833488 8.57554 -84.5703 9.89282 5.74655 2.8346 -1.76791 5.86567 2.57833 -24.3504 4.62942 4.43192 -4.33777 4.62941 4.43192 95.0303 -14.0853 -101.614 101.506 22.3309 -112.945 27.7145 -26.1893 -98.8131 -5.37983 -0.320016 -0.0162406 -76.5962 -28.0952 99.4678 4.56245 -59.1911 -54.1974 74.409 -0.950838 -81.9866 32.6336 -6.2773 -23.8032 19.3506 -19.4885 11.3462 -25.3965 -18.4726 -20.1232 
-17.2747 79.9136 -136.037 65.6512 -64.3357 71.08 -178.834 57.0325 98.5298 -82.7931 36.0467 31.1064 68.9864 0.0146954 -0.3057 28.7808 6.08519e-006 4.16276e-006 -178.104 27.2391 59.1404 -37.9219 40.0458 2.36354 39.8013 15.7351 14.8366 28.7808 1.37887e-005 2.62426e-005 0.605136 9.05039 -84.4196 8.90529 6.14646 3.52874 -2.75516 6.2957 3.25419 -25.3301 4.8029 5.21333 -5.31742 4.8029 5.21333 94.4484 -14.8015 -102.853 96.5221 20.9752 -101.968 24.5661 -23.3435 -100.682 -5.37983 -0.320016 -0.0162406 -77.6012 -31.3783 97.4363 3.84417 -53.58 -45.6345 82.0959 -1.94459 -80.2836 30.4333 -6.00716 -24.0426 22.5673 -18.7607 14.6612 -25.8041 -19.1984 -19.2529 
-19.1213 78.6541 -136.666 60.8068 -62.7796 64.3581 -179.397 60.58 98.1 -81.7849 36.1812 29.5206 68.4165 -1.36819 -1.04329 28.7808 6.08519e-006 4.16276e-006 -175.227 31.9205 54.4236 -41.4002 37.4782 2.08296 40.6621 16.9803 15.6831 28.7808 1.37887e-005 2.62426e-005 0.367759 9.62475 -84.3766 7.73271 6.2314 3.80552 -3.92806 6.39274 3.52702 -26.497 4.80109 5.50232 -6.48437 4.8011 5.50233 94.037 -14.4555 -104.094 80.4896 20.1327 -84.8981 18.0066 -14.5078 -106.308 -5.37983 -0.320016 -0.0162406 -77.8249 -37.746 97.0392 -0.0553395 -47.6479 -41.8935 89.532 -5.44342 -78.8938 11.7401 -1.32508 -15.2555 26.2111 -16.6015 19.4996 -28.7728 -18.6655 -19.8061 
-20.9402 77.485 -137.12 57.8654 -62.1405 60.3235 179.661 62.9785 98.84 -81.6198 36.0648 29.038 68.1283 -2.96343 -1.88634 28.7808 6.08519e-006 4.16276e-006 -171.621 35.8586 50.8835 -46.2618 36.2731 1.91395 41.4371 19.0736 17.2643 28.7808 1.37887e-005 2.62426e-005 0.0325722 10.1046 -84.2618 6.73838 5.99903 4.12644 -4.92443 6.17466 3.85806 -27.4762 4.48349 5.73751 -7.46355 4.48349 5.73751 92.7483 -18.0028 -105.733 61.5785 14.1469 -67.2786 9.78174 -5.51063 -108.414 -5.37983 -0.320016 -0.0162406 -77.0444 -42.6128 98.3651 -3.10002 -42.2922 -37.9816 88.5659 0.221371 -79.9451 35.5655 -0.920725 -6.62272 24.6225 -14.7904 19.5963 -27.4585 -17.0629 -19.2009 
-22.8273 76.5797 -137.643 56.1707 -62.8435 57.532 179.228 63.679 100.026 -80.903 35.8781 28.5877 68.0853 -4.5121 -2.6955 28.7808 6.08519e-006 4.16276e-006 -167.412 39.741 47.9952 -51.8453 35.2518 1.73902 42.5788 19.1164 16.9424 28.7808 1.37887e-005 2.62426e-005 -0.251913 10.513 -84.1545 5.89387 5.68111 4.34506 -5.77107 5.86666 4.09065 -28.3068 4.11491 5.84969 -8.29421 4.1149 5.8497 91.4581 -22.4472 -106.764 41.3837 2.617 -50.7071 1.39869 4.41022 -106.402 -5.37983 -0.320016 -0.0162406 -76.3475 -47.0169 99.4145 -7.36802 -40.0266 -34.651 86.1883 3.71135 -80.0784 39.7392 -1.8259 -8.8765 19.7086 -13.7277 18.6331 -24.515 -15.7724 -17.5164 
-25.0162 75.7972 -138.015 51.7821 -64.3428 52.4337 178.831 64.2217 102.662 -79.6874 35.8656 27.9293 68.2074 -5.9506 -3.43858 28.7808 6.08519e-006 4.16276e-006 -162.846 44.7099 45.8097 -56.6936 34.2232 1.56688 44.9599 17.5005 14.9043 28.7808 1.37887e-005 2.62426e-005 -0.613732 10.6858 -84.0717 5.51693 5.20755 4.51873 -6.15063 5.40119 4.28518 -28.6689 3.61129 5.87243 -8.6562 3.6113 5.87242 92.0601 -24.6166 -104.547 27.0284 -15.4903 -39.8449 -6.40134 11.1197 -98.5507 -5.37983 -0.320016 -0.0162406 -76.0276 -50.8806 99.8083 -8.68114 -40.7595 -29.5796 73.8783 6.57182 -80.1888 41.5874 -3.48812 -12.7662 13.2939 -12.7263 18.0468 -20.3776 -14.4364 -16.7227 
-27.3044 75.1943 -137.961 45.4105 -65.4293 45.0332 178.588 64.3972 105.327 -77.268 35.3593 26.4781 68.4277 -7.87074 -4.40301 28.7808 6.08519e-006 4.16276e-006 -158.792 49.3262 43.6835 -59.7845 33.7994 1.48699 48.5555 15.9547 12.7395 28.7808 1.37887e-005 2.62426e-005 -1.01086 10.6456 -83.9794 5.54833 4.50229 4.97214 -6.12356 4.71651 4.76946 -28.6114 2.80298 6.09217 -8.59871 2.80299 6.09218 92.8957 -25.8374 -102.3 19.5592 -32.5365 -31.4113 -11.6689 13.9368 -91.7695 -5.37983 -0.320016 -0.0162406 -76.0847 -52.0268 99.6937 -11.1411 -43.5304 -26.4064 67.1384 10.4809 -78.1475 41.8865 -6.43961 -19.9224 6.73069 -12.5735 16.1615 -16.9424 -13.6981 -14.9013 
